<!--?xml version="1.0" encoding="utf-8"?-->
<!-- Generator: Adobe Illustrator 18.1.1, SVG Export Plug-In . SVG Version: 6.00 Build 0)  -->

<svg version="1.1" id="_x32_" xmlns="http://www.w3.org/2000/svg" xmlns:xlink="http://www.w3.org/1999/xlink" x="0px" y="0px" viewBox="0 0 512 512" style="width: 48px; height: 48px; opacity: 1;" xml:space="preserve">
<style type="text/css">
	.st0{fill:#4B4B4B;}
</style>
<g>
	<path class="st0" d="M241.531,212.512c3.817-5.101,8.952-8.024,14.113-8.024c5.168,0,10.31,2.923,14.12,8.011
		c10.046,13.374,19.442,18.346,34.691,18.346c22.305,0,40.463-18.145,40.463-40.45c0-22.312-18.158-40.457-40.463-40.457h-97.62
		c-22.299,0-40.45,18.145-40.45,40.457c0,22.305,18.152,40.45,40.45,40.45C222.089,230.845,231.491,225.873,241.531,212.512z
		 M206.834,222.405c-17.641,0-32.002-14.362-32.002-32.009c0-17.654,14.361-32.016,32.002-32.016h97.62
		c17.654,0,32.015,14.362,32.015,32.016c0,17.647-14.361,32.009-32.015,32.009c-12.487,0-19.53-3.77-27.93-14.96
		c-5.41-7.23-13.017-11.397-20.88-11.397c-7.842,0-15.457,4.167-20.866,11.397C226.377,218.634,219.334,222.405,206.834,222.405z" style="fill: rgb(58, 171, 210);"></path>
	<path class="st0" d="M247.949,277.586l0.094-0.06c0.007,0,0.014-0.007,0.014-0.007l0.007-0.006L247.949,277.586z" style="fill: rgb(58, 171, 210);"></path>
	<path class="st0" d="M272.505,282.27c-1.929-2.843-4.603-5.027-7.728-6.371l-0.027-0.014c-2.138-0.9-4.469-1.384-6.848-1.384
		c-3.508-0.007-6.942,1.055-9.846,3.017c-2.829,1.895-5.067,4.59-6.391,7.762l0.007-0.027c-0.921,2.157-1.399,4.503-1.392,6.868
		c-0.007,3.508,1.042,6.929,2.984,9.826l0.014,0.027l0.013,0.02c1.922,2.816,4.597,5.033,7.735,6.364l0.048,0.02
		c2.13,0.881,4.455,1.378,6.828,1.371h0.013c3.495-0.006,6.922-1.041,9.832-3.01c2.836-1.915,5.067-4.61,6.391-7.769
		c0.908-2.151,1.384-4.482,1.378-6.848c0.007-3.514-1.055-6.942-2.997-9.839L272.505,282.27z M255.281,298.204l-0.027-0.013
		l0.034,0.013H255.281z M263.99,294.696c-0.504,1.183-1.31,2.171-2.412,2.924c-1.082,0.726-2.338,1.116-3.682,1.122
		c-0.881-0.006-1.708-0.168-2.594-0.531c-1.156-0.498-2.144-1.31-2.904-2.413c-0.725-1.122-1.102-2.345-1.108-3.676
		c0.007-0.927,0.174-1.74,0.517-2.554l0.007-0.027c0.504-1.183,1.304-2.157,2.386-2.89l0.094-0.06l-0.067,0.047
		c1.102-0.746,2.338-1.122,3.676-1.129c0.9,0,1.733,0.175,2.567,0.524c1.142,0.484,2.251,1.398,2.91,2.392l-0.014-0.013
		c0.759,1.136,1.136,2.385,1.142,3.709C264.501,293.05,264.333,293.876,263.99,294.696z" style="fill: rgb(58, 171, 210);"></path>
	<path class="st0" d="M437.813,404.642c-12.318-18.373-30.968-28.555-48.447-35.161c-8.81-3.306-17.412-5.712-24.98-7.782
		c-7.567-2.063-14.106-3.784-18.514-5.437c-7.776-2.89-15.894-6.606-21.606-10.591c-2.822-1.996-5.027-4.066-6.33-5.787
		c-1.237-1.787-1.586-3.024-1.586-4.059v-17.89h-15.134v17.89c-0.04,2.513,0.464,4.899,1.304,7.11h-93.084
		c0.84-2.184,1.351-4.563,1.351-7.11v-26.909c-1.237-3.508-2.131-7.083-2.614-10.732c-8.602-9.564-19.476-21.814-25.531-41.156
		c7.567,2.688,15.692,4.201,24.227,4.201c8.817,0,16.741-1.244,24.046-3.69c-3.609,2.816-6.815,6.15-9.422,10
		c-4.933,7.278-7.534,15.779-7.52,24.596c0,5.941,1.162,11.7,3.461,17.11c3.34,7.849,8.83,14.523,15.894,19.294
		c7.244,4.913,15.739,7.513,24.543,7.513c5.954,0,11.707-1.162,17.13-3.454c7.863-3.326,14.543-8.824,19.321-15.914
		c0.49-0.719,0.961-1.459,1.411-2.232h50.504c10.833,0,21.338-2.117,31.216-6.297c14.342-6.075,26.532-16.115,35.262-29.038
		c4.388-6.499,7.789-13.569,10.101-21.008c2.393-7.708,3.602-15.726,3.602-23.831V33.837V22.829h-11.008H396.49h-11.008v11.008
		v200.442c-0.007,5.175-1.021,10.195-3.011,14.92c-2.883,6.828-7.688,12.655-13.891,16.842c-3.119,2.11-6.472,3.723-9.98,4.812
		c-3.69,1.142-7.527,1.72-11.425,1.72h-49.926c-2.472-4.993-5.893-9.448-10.053-13.165c5.396,1.176,11.095,1.822,17.251,1.822
		c8.737,0,17.138-1.58,24.912-4.476c-1.444,4.617-3.165,8.81-5.026,12.668h2.688c3.918,0,7.776-0.625,11.418-1.72
		c1.176-0.417,2.346-0.901,3.515-1.378c1.445-3.978,3.616-12.614,5-19.321c17.157-12.944,28.306-33.495,28.306-56.586
		c0-3.85-0.343-7.708-0.968-11.424c-0.752-4.954-2.063-9.704-3.85-14.241c2.547-9.502,5.436-23.743,5.436-40.329
		c0-30.141-13.421-72.124-55.739-99.375C293.641,7.984,275.819,0,228.265,0c-47.553,0-84.576,37.231-79.072,57.6
		c-27.728,20.504-15.551,86.088-9.973,111.76v0.067c-1.244,3.925-2.07,7.984-2.614,12.11c-0.35,2.89-0.551,5.854-0.551,8.878
		c0,23.246,11.25,43.884,28.589,56.828c5.484,28.36,21.357,48.884,31.001,59.61v28.972c0,0.894-0.343,2.204-1.788,4.059
		c-2.063,2.823-6.33,6.196-11.492,9.086c-5.094,2.89-10.941,5.437-16.102,7.224c-5.988,2.137-15.692,4.334-26.633,7.5
		c-16.31,4.684-35.645,11.492-51.337,24.986c-7.916,6.741-14.798,15.208-19.61,25.732c-4.886,10.531-7.641,23.058-7.641,37.648
		c0,3.441,0.134,6.949,0.484,10.524c0.202,2.547,1.169,4.61,2.272,6.33c2.197,3.166,5.088,5.578,8.67,7.984
		c6.263,4.133,15,8.26,26.149,12.252C132.062,501.053,187.392,511.926,256,512c55.739,0,102.741-7.231,136.323-16.31
		c16.794-4.61,30.215-9.57,39.845-14.523c4.886-2.547,8.811-5.02,11.909-7.708c1.58-1.378,2.957-2.823,4.059-4.543
		c1.169-1.72,2.131-3.784,2.339-6.33c0.343-3.575,0.484-7.084,0.484-10.457C450.959,432.585,445.932,416.893,437.813,404.642z
		 M288.231,279.306c0.35,0.814,0.652,1.653,0.921,2.486c0.356,1.062,1.351,1.788,2.473,1.788h55.551
		c5.013,0,9.946-0.746,14.677-2.211c4.544-1.404,8.884-3.494,12.883-6.202c7.977-5.384,14.16-12.883,17.883-21.694
		c2.561-6.075,3.864-12.527,3.871-19.194V33.837h18.918v200.442c0,7.017-1.048,13.932-3.104,20.565
		c-1.99,6.398-4.92,12.494-8.716,18.112c-7.534,11.156-18.051,19.818-30.423,25.06c-8.528,3.609-17.594,5.43-26.929,5.43h-55.651
		c-1.042,0-1.983,0.625-2.393,1.586c-0.84,1.949-1.842,3.797-2.997,5.497c-3.582,5.309-8.589,9.435-14.482,11.928
		c-4.053,1.714-8.367,2.588-12.809,2.588h-0.034c-6.592,0-12.944-1.942-18.374-5.625c-5.308-3.589-9.428-8.596-11.929-14.476
		c-1.72-4.052-2.587-8.374-2.587-12.822c-0.007-6.6,1.942-12.97,5.625-18.407c3.602-5.315,8.608-9.442,14.476-11.922
		c4.066-1.721,8.38-2.594,12.823-2.594c6.586,0,12.957,1.949,18.413,5.632C281.618,268.412,285.738,273.419,288.231,279.306z
		 M246.531,249.73c3.145-2.171,6.196-4.597,9.126-7.426c2.432,2.345,4.966,4.388,7.547,6.277c-1.754-0.208-3.515-0.39-5.302-0.39
		C254.024,248.191,250.22,248.742,246.531,249.73z M186.632,111.344c0,0-5.161-11.834-7.365-20.712
		c0.759-1.378,1.445-2.681,2.204-3.992l0.686-0.894c22.916,28.488,76.391,17.271,88.776,14.039
		c46.451-12.043,75.698,24.086,75.698,24.086s-1.236,3.098-1.586,8.534c-11.492-8.051-25.457-12.802-40.598-12.802h-97.58
		c-18.79,0-35.853,7.298-48.588,19.268C164.475,118.434,186.632,111.344,186.632,111.344z M169.771,236.934
		c-2.131-1.647-4.126-3.508-6.055-5.504l-0.067-0.134c-10.188-10.598-16.378-25.054-16.378-40.88c0-5.779,0.88-11.351,2.426-16.653
		c0.498-1.7,1.069-3.367,1.7-5.006c0.013-0.034,0.027-0.067,0.04-0.108c0.599-1.525,1.264-3.017,1.976-4.482
		c0.08-0.162,0.154-0.323,0.235-0.484c0.658-1.331,1.384-2.622,2.137-3.898c0.141-0.235,0.268-0.484,0.416-0.719
		c0.887-1.452,1.828-2.863,2.836-4.227c10.941-14.523,28.28-24.018,47.829-24.018h97.58c16.102,0,30.76,6.404,41.499,16.861
		c1.667,1.626,3.212,3.374,4.678,5.188c0.362,0.45,0.705,0.92,1.062,1.384c1.156,1.519,2.251,3.078,3.259,4.704
		c0.235,0.383,0.478,0.76,0.712,1.142c2.507,4.254,4.536,8.824,5.954,13.656c1.553,5.296,2.433,10.874,2.433,16.66
		c0,14.523-5.236,27.869-13.904,38.192c-2.957,3.441-6.264,6.606-9.839,9.294c-2.406,1.854-4.953,3.508-7.641,4.886
		c-8.394,4.61-18.031,7.157-28.212,7.157c-20.712,0-35.443-7.366-48.79-24.436c-13.353,17.138-28.078,24.436-48.79,24.436
		c-9.912,0-19.274-2.413-27.527-6.748C175.967,241.41,172.734,239.347,169.771,236.934z M165.396,489.897
		c-15.672-2.534-29.684-5.578-41.734-8.864c-0.632-0.175-1.23-0.35-1.854-0.524v-94.596c2.022-0.873,4.066-1.694,6.122-2.466
		c7.984-3.024,16.102-5.363,23.536-7.358c5.047-1.344,9.704-2.534,13.931-3.77V489.897z M390.193,480.508
		c-7.507,2.097-15.706,4.12-24.705,5.961c-5.961,1.217-12.311,2.346-18.884,3.401V372.457c6.324,1.909,13.622,3.71,21.432,5.968
		c7.238,2.104,14.812,4.624,22.157,7.789V480.508z" style="fill: rgb(58, 171, 210);"></path>
</g>
</svg>
